<svg viewBox="0 0 241.77 198.1" xmlns="http://www.w3.org/2000/svg" xmlns:xlink="http://www.w3.org/1999/xlink" overflow="hidden"><defs></defs><path d="M147.61 44.88 0 44.88 0 0 130.61 0 147.61 44.88ZM241.77 95.96 0 95.96 0 51.07 224.77 51.07 241.77 95.96ZM0 198.1 139.05 198.1 156.05 153.22 0 153.22 0 198.1Z" fill="#0F7CFF"/><path d="M14.48 32.46 14.48 13 19 13C21.37 20.23 22.49 24.52 22.68 25.41L22.75 25.41C22.56 22.98 22.5 19.8 22.5 16.8L22.5 13 26.15 13 26.15 32.46 21.7 32.46C19.31 24.79 18.19 20.23 17.99 19.46L17.92 19.46C18.07 21.8 18.13 25.22 18.13 28.46L18.13 32.46ZM34.25 28.05 33.6 32.46 29.5 32.46 33.14 13 38.87 13 42.56 32.43 38.32 32.43 37.64 28.02ZM37.11 24.55C36.68 21.66 36.24 18.46 36 16.55L35.87 16.55C35.71 18.27 35.21 21.68 34.77 24.55ZM46.19 16.49 42.59 16.49 42.59 13 53.85 13 53.85 16.46 50.26 16.46 50.26 32.46 46.19 32.46ZM61.62 13 61.62 32.46 57.54 32.46 57.54 13ZM78 21.25 78 24.05C78 30.17 76.09 32.8 71.76 32.8 67.76 32.8 65.76 30.14 65.76 24.01L65.76 21.17C65.76 15.17 67.98 12.7 71.9 12.7 75.82 12.7 78 15.38 78 21.25ZM70 21.06 70 24.14C70 27.77 70.47 29.48 71.88 29.48 73.29 29.48 73.77 27.9 73.77 24.13L73.77 21.05C73.77 17.55 73.37 16.05 71.87 16.05 70.37 16.05 70 17.6 70 21.06ZM81.92 32.46 81.92 13 86.43 13C88.8 20.23 89.91 24.52 90.11 25.41L90.18 25.41C89.99 22.98 89.93 19.8 89.93 16.8L89.93 13 93.58 13 93.58 32.46 89.14 32.46C86.76 24.79 85.64 20.23 85.44 19.46L85.36 19.46C85.51 21.8 85.58 25.22 85.58 28.46L85.58 32.46ZM101.7 28.05 101 32.46 96.9 32.46 100.58 13 106.31 13 110 32.46 105.75 32.46 105.07 28.05ZM104.56 24.55C104.13 21.66 103.69 18.46 103.45 16.55L103.31 16.55C103.15 18.27 102.66 21.68 102.21 24.55ZM113.39 13 117.47 13 117.47 29 123.27 29 122.9 32.41 113.39 32.41Z" fill="#FFFFFF"/><g><path d="M18.52 177.53 18.52 185.68 14.52 185.68 14.52 166.24 20.43 166.24C23.98 166.24 25.84 167.95 25.84 171.45L25.84 171.66C25.84 174.42 24.53 175.53 23.51 175.95 24.91 176.6 25.6 177.72 25.6 180.51L25.6 181C25.5644 182.566 25.6312 184.133 25.8 185.69L21.8 185.69C21.5407 184.111 21.4436 182.509 21.51 180.91L21.51 180.44C21.51 178.11 21.09 177.54 19.38 177.54ZM18.52 174.39 19.46 174.39C21.09 174.39 21.73 173.8 21.73 171.91L21.73 171.64C21.73 170.12 21.22 169.38 19.73 169.38L18.53 169.38ZM39.23 177.28 33.86 177.28 33.86 182.28 40 182.28 39.51 185.7 29.83 185.7 29.83 166.24 39.49 166.24 39.49 169.7 33.86 169.7 33.86 173.84 39.23 173.84ZM46.53 180 46.53 180.41C46.61 181.9 47.05 182.9 48.32 182.9 49.59 182.9 49.94 181.97 49.94 180.9 49.94 179.36 49.34 178.62 47.12 177.3 44.12 175.57 42.88 174.22 42.88 171.3 42.88 168.18 44.56 165.89 48.31 165.89 52.63 165.89 53.66 168.71 53.69 171.37L53.69 171.71 49.76 171.71 49.76 171.36C49.7 170.09 49.47 169.04 48.29 169.04 47.29 169.04 46.92 169.71 46.92 170.84 46.92 171.97 47.32 172.6 49.3 173.71 52.67 175.62 54.05 177.07 54.05 180.33 54.05 183.59 52.42 186 48.25 186 43.86 186 42.57 183.4 42.5 180.32L42.5 180ZM67.41 177.28 62 177.28 62 182.28 68.12 182.28 67.64 185.7 58 185.7 58 166.24 67.65 166.24 67.65 169.7 62 169.7 62 173.84 67.38 173.84ZM76 181.27 75.35 185.68 71.25 185.68 74.89 166.24 80.62 166.24 84.31 185.68 80.09 185.68 79.41 181.27ZM78.86 177.77C78.43 174.88 77.99 171.68 77.75 169.77L77.62 169.77C77.46 171.48 76.96 174.9 76.52 177.77ZM91.75 177.53 91.75 185.68 87.75 185.68 87.75 166.24 93.67 166.24C97.21 166.24 99.07 167.95 99.07 171.45L99.07 171.66C99.07 174.42 97.77 175.53 96.75 175.95 98.15 176.6 98.83 177.72 98.83 180.51L98.83 181C98.7996 182.566 98.8664 184.132 99.03 185.69L95 185.69C94.7503 184.11 94.6565 182.509 94.72 180.91L94.72 180.44C94.72 178.11 94.29 177.54 92.58 177.54ZM91.75 174.39 92.68 174.39C94.31 174.39 94.95 173.8 94.95 171.91L94.95 171.64C94.95 170.12 94.44 169.38 92.95 169.38L91.76 169.38ZM114.23 179.62 114.23 179.92C114.23 181.86 113.63 186.02 108.5 186.02 103.71 186.02 102.62 182.6 102.62 177.42L102.62 174.42C102.62 168.66 104.62 165.91 108.62 165.91 113.46 165.91 114.14 169.55 114.18 171.83L114.18 172.18 110.12 172.18 110.12 171.69C110.12 170.69 109.99 169.25 108.58 169.25 107.17 169.25 106.81 170.74 106.81 174.34L106.81 177.55C106.81 180.64 107.05 182.71 108.54 182.71 110.03 182.71 110.08 181.18 110.12 180.07L110.12 179.61ZM118.1 166.24 122.18 166.24 122.18 173.68 125.48 173.68 125.48 166.24 129.57 166.24 129.57 185.68 125.48 185.68 125.48 177.18 122.18 177.18 122.18 185.68 118.1 185.68Z" fill="#FFFFFF"/></g><path d="M0 102.14 0 147.03 189.2 147.03 206.2 102.14 0 102.14Z" fill="#0F7CFF"/><g><path d="M26.05 134.61 23 134.61C22.9181 134.11 22.8614 133.606 22.83 133.1 22.1077 134.406 20.6746 135.154 19.19 135 15.5 135 14 132.16 14 126.2L14 123.88C14 117.46 16.26 114.88 20.35 114.88 25.56 114.88 25.97 118.99 26 120.55L26 120.76 21.89 120.76 21.89 120.5C21.89 119.59 21.71 118.24 20.25 118.24 18.79 118.24 18.25 120.18 18.25 123.79L18.25 126.33C18.25 130.12 18.68 131.67 20.18 131.67 21.5 131.67 21.91 130.6 21.91 128.52L21.91 126.91 20.05 126.91 20.05 123.57 26.05 123.57ZM34.45 115.16 34.45 129C34.45 130.29 34.76 131.6 36.26 131.6 37.76 131.6 38 130.44 38 129L38 115.16 42.14 115.16 42.14 128.91C42.14 132.63 40.41 134.91 36.14 134.91 31.87 134.91 30.28 132.66 30.28 128.84L30.28 115.16ZM46.61 134.61 46.61 115.16 51.16 115.16C53.67 122.79 54.71 126.7 54.91 127.6L55 127.6C54.81 125.17 54.75 122 54.75 118.98L54.75 115.16 58.43 115.16 58.43 134.61 53.94 134.61C51.39 126.45 50.36 122.35 50.15 121.55L50.08 121.55C50.23 123.89 50.29 127.31 50.29 130.55L50.29 134.61ZM72.94 134.61 68.94 115.16 73.32 115.16 74.55 122.75C74.95 125.27 75.33 128 75.55 130.26L75.67 130.26C75.86 127.98 76.34 125.32 76.67 122.81L77.82 115.16 82.1 115.16 78.1 134.61ZM89.68 115.16 89.68 134.61 85.56 134.61 85.56 115.16ZM106.29 123.64 106.29 125.93C106.29 132.24 104.38 134.93 99.97 134.93 95.84 134.93 93.91 132.19 93.91 125.85L93.91 123.53C93.91 117.39 96.14 114.8 100.15 114.8 104.16 114.8 106.29 117.6 106.29 123.64ZM98.17 123.47 98.17 126C98.17 129.83 98.64 131.63 100.09 131.63 101.54 131.63 102 129.94 102 126L102 123.48C102 119.79 101.59 118.21 100.06 118.21 98.53 118.21 98.17 119.83 98.17 123.47ZM110.54 115.16 114.66 115.16 114.66 131.16 120.55 131.16 120.17 134.6 110.54 134.6ZM133.6 126.22 128.12 126.22 128.12 131.17 134.36 131.17 133.87 134.61 124.06 134.61 124.06 115.16 133.86 115.16 133.86 118.64 128.12 118.64 128.12 122.76 133.6 122.76ZM137.78 134.61 137.78 115.16 142.33 115.16C144.85 122.79 145.89 126.7 146.09 127.6L146.15 127.6C145.97 125.17 145.91 122 145.91 118.98L145.91 115.16 149.59 115.16 149.59 134.61 145.12 134.61C142.57 126.45 141.54 122.35 141.33 121.55L141.26 121.55C141.41 123.89 141.47 127.31 141.47 130.55L141.47 134.61ZM165.62 128.55 165.62 128.8C165.57 130.7 165 134.95 159.81 134.95 154.9 134.95 153.81 131.4 153.81 126.07L153.81 123.62C153.81 117.62 155.81 114.83 159.96 114.83 164.87 114.83 165.55 118.55 165.59 120.83L165.59 121.12 161.49 121.12 161.49 120.72C161.49 119.72 161.37 118.21 159.91 118.21 158.45 118.21 158.08 119.78 158.08 123.58L158.08 126.21C158.08 129.47 158.33 131.65 159.87 131.65 161.41 131.65 161.44 130.05 161.49 128.95L161.49 128.57ZM179.06 126.22 173.58 126.22 173.58 131.17 179.82 131.17 179.33 134.61 169.52 134.61 169.52 115.16 179.32 115.16 179.32 118.64 173.58 118.64 173.58 122.76 179.06 122.76Z" fill="#FFFFFF"/></g><g><path d="M24.32 77.7 24.32 78.47C24.32 80.73 23.83 84.28 19.11 84.28 15.18 84.28 13.96 81.85 13.96 77.77L13.96 70.28C13.96 66.11 15.71 63.92 19.21 63.92 23.56 63.92 24.26 66.92 24.27 69.46L24.27 70.35 20.43 70.35 20.43 69.13C20.43 68.03 20.22 67.13 19.19 67.13 18.16 67.13 17.87 68 17.87 70L17.87 78C17.87 79.76 18.07 81 19.18 81 20.29 81 20.45 80 20.47 78.82L20.47 77.7ZM38.41 70.55 38.41 77.55C38.41 82.22 36.57 84.26 32.8 84.26 29.24 84.26 27.5 82.19 27.5 77.56L27.5 70.46C27.5 65.89 29.63 63.92 32.98 63.92 36.33 63.92 38.41 65.92 38.41 70.55ZM31.41 70.21 31.41 77.93C31.41 80.01 31.87 81.04 32.95 81.04 34.03 81.04 34.5 80.1 34.5 77.91L34.5 70.19C34.5 68.19 34.12 67.19 32.94 67.19 31.76 67.19 31.4 68.12 31.4 70.21ZM42 64.22 45.83 64.22 45.83 80.66 51 80.66 50.63 84 42 84ZM54.24 64.22 58.07 64.22 58.07 80.66 63.25 80.66 62.91 84 54.24 84ZM70.4 79.29 69.83 84 66 84 69.16 64.25 74.7 64.25 77.88 84 73.88 84 73.26 79.32ZM72.87 75.93C72.52 73.17 72.11 69.65 71.87 67.67L71.73 67.67C71.63 69.22 71.13 73.29 70.79 75.93ZM80.78 64.22 85.78 64.22C89.21 64.22 90.85 65.8 90.85 68.87L90.85 69.45C90.85 72.1 89.85 73.01 88.85 73.39 89.85 73.8 91.23 74.64 91.23 77.47L91.23 78.67C91.23 82.19 89.57 83.97 85.96 83.97L80.78 83.97ZM85.26 72C86.74 72 87.19 71.51 87.19 69.92L87.19 69.19C87.19 67.79 86.69 67.19 85.39 67.19L84.5 67.19 84.5 72ZM84.5 81 85.5 81C86.94 81 87.39 80.34 87.39 78.68L87.39 77.39C87.39 75.69 86.96 74.94 85.24 74.94L84.5 74.94ZM105.38 70.55 105.38 77.55C105.38 82.22 103.54 84.26 99.77 84.26 96.21 84.26 94.47 82.19 94.47 77.56L94.47 70.46C94.47 65.89 96.6 63.92 99.95 63.92 103.3 63.92 105.38 65.92 105.38 70.55ZM98.38 70.21 98.38 77.93C98.38 80.01 98.84 81.04 99.92 81.04 101 81.04 101.47 80.1 101.47 77.91L101.47 70.19C101.47 68.19 101.09 67.19 99.91 67.19 98.73 67.19 98.37 68.12 98.37 70.21ZM113 75.46 113 84 109.2 84 109.2 64.22 114.4 64.22C117.75 64.22 119.52 65.72 119.52 69.22L119.52 69.77C119.52 72.63 118.29 73.54 117.41 73.93 118.68 74.54 119.32 75.5 119.32 78.27L119.32 78.44C119.274 80.2782 119.327 82.1176 119.48 83.95L115.78 83.95C115.54 82.0969 115.457 80.227 115.53 78.36L115.53 78.2C115.53 75.91 115.21 75.44 113.62 75.44ZM113 72.46 113.64 72.46C115.08 72.46 115.64 71.98 115.64 70.06L115.64 69.39C115.64 67.97 115.29 67.25 113.81 67.25L113 67.25ZM127 79.29 126.44 84 122.56 84 125.72 64.25 131.26 64.25 134.49 84 130.49 84 129.87 79.32ZM129.47 75.93C129.12 73.17 128.71 69.65 128.47 67.67L128.33 67.67C128.23 69.22 127.73 73.29 127.39 75.93ZM138.8 67.58 135.61 67.58 135.61 64.22 145.82 64.22 145.82 67.58 142.62 67.58 142.62 84 138.8 84ZM152.38 64.22 152.38 84 148.56 84 148.56 64.22ZM159.15 84 155.74 64.25 159.83 64.25 160.75 71.78C161.06 74.34 161.4 77.13 161.57 79.54L161.69 79.54C161.85 77.15 162.24 74.46 162.52 71.82L163.36 64.25 167.36 64.25 164 84ZM179.1 75.28 174.53 75.28 174.53 80.64 179.82 80.64 179.36 84 170.71 84 170.71 64.22 179.34 64.22 179.34 67.58 174.53 67.58 174.53 72 179.1 72ZM200.27 70.55 200.27 77.55C200.27 82.22 198.43 84.26 194.66 84.26 191.11 84.26 189.37 82.19 189.37 77.56L189.37 70.46C189.37 65.89 191.5 63.92 194.85 63.92 198.2 63.92 200.27 65.92 200.27 70.55ZM193.27 70.21 193.27 77.93C193.27 80.01 193.73 81.04 194.8 81.04 195.87 81.04 196.36 80.1 196.36 77.91L196.36 70.19C196.36 68.19 195.98 67.19 194.8 67.19 193.62 67.19 193.27 68.12 193.27 70.21ZM204.28 84 204.28 64.22 208.54 64.22C209.77 68.31 211.54 75.83 211.69 76.71L211.76 76.71C211.57 74.18 211.48 70.86 211.48 67.92L211.48 64.22 215 64.22 215 84 210.77 84C209.67 80.12 207.77 71.67 207.62 71L207.54 71C207.69 73.36 207.77 76.89 207.77 80.13L207.77 84Z" fill="#FFFFFF"/></g></svg>